<svg width="674" height="626" viewBox="0 0 674 626" fill="none" xmlns="http://www.w3.org/2000/svg">
<path fill-rule="evenodd" clip-rule="evenodd" d="M460.384 27.4976C464.816 29.4552 468.584 32.6586 471.23 36.7183C473.875 40.7779 475.283 45.5188 475.284 50.3643V600.364C475.287 605.211 473.881 609.954 471.238 614.016C468.595 618.078 464.828 621.285 460.395 623.245C455.963 625.205 451.056 625.834 446.272 625.057C441.488 624.279 437.034 622.128 433.451 618.864L257.284 458.698H166.951C151.48 458.698 136.642 452.552 125.703 441.612C114.763 430.673 108.617 415.835 108.617 400.364V250.364C108.617 218.164 134.751 192.031 166.951 192.031H257.284L433.451 31.8643C437.038 28.6109 441.493 26.4695 446.274 25.7003C451.055 24.931 455.957 25.567 460.384 27.5309V27.4976ZM425.284 106.864L354.534 171.198L283.784 235.531C279.178 239.718 273.175 242.035 266.951 242.031H166.951C164.74 242.031 162.621 242.909 161.058 244.472C159.495 246.035 158.617 248.154 158.617 250.364V400.364C158.617 404.964 162.351 408.698 166.951 408.698H266.951C273.175 408.693 279.178 411.011 283.784 415.198L425.284 543.864V106.864Z" fill="black"/>
<line x1="23.9997" y1="591.47" x2="639.704" y2="24.0002" stroke="black" stroke-width="48" stroke-linecap="round"/>
</svg>
