<svg width="734" height="600" viewBox="0 0 734 600" fill="none" xmlns="http://www.w3.org/2000/svg">
<path fill-rule="evenodd" clip-rule="evenodd" d="M351.767 2.11479C356.199 4.07235 359.967 7.2758 362.612 11.3355C365.258 15.3951 366.666 20.136 366.667 24.9815V574.981C366.67 579.828 365.264 584.571 362.621 588.633C359.977 592.696 356.21 595.902 351.778 597.862C347.345 599.822 342.439 600.452 337.655 599.674C332.871 598.896 328.417 596.745 324.833 593.481L148.667 433.315H58.3333C42.8624 433.315 28.0251 427.169 17.0854 416.229C6.14581 405.29 0 390.452 0 374.981V224.981C0 192.781 26.1333 166.648 58.3333 166.648H148.667L324.833 6.48146C328.421 3.22812 332.876 1.08671 337.657 0.317439C342.438 -0.451831 347.34 0.184161 351.767 2.14813V2.11479ZM316.667 81.4815L175.167 210.148C170.56 214.335 164.558 216.653 158.333 216.648H58.3333C56.1232 216.648 54.0036 217.526 52.4408 219.089C50.878 220.652 50 222.771 50 224.981V374.981C50 379.581 53.7333 383.315 58.3333 383.315H158.333C164.558 383.31 170.56 385.628 175.167 389.815L316.667 518.481V81.4815Z" fill="black"/>
<path d="M590.6 40.7137C595.288 36.032 601.642 33.4023 608.267 33.4023C614.892 33.4023 621.246 36.032 625.934 40.7137C769.134 183.914 769.134 416.047 625.934 559.247C621.195 563.663 614.926 566.067 608.45 565.953C601.973 565.839 595.793 563.215 591.213 558.634C586.633 554.054 584.009 547.874 583.895 541.398C583.78 534.921 586.184 528.653 590.6 523.914C620.011 494.508 643.34 459.597 659.257 421.174C675.174 382.751 683.366 341.569 683.366 299.98C683.366 258.391 675.174 217.209 659.257 178.787C643.34 140.364 620.011 105.453 590.6 76.047C585.919 71.3595 583.289 65.0054 583.289 58.3803C583.289 51.7553 585.919 45.4012 590.6 40.7137Z" fill="black"/>
<path d="M508.102 158.547C505.779 156.225 503.022 154.383 499.988 153.126C496.954 151.87 493.702 151.223 490.418 151.223C487.134 151.223 483.882 151.87 480.848 153.126C477.814 154.383 475.057 156.225 472.735 158.547C470.413 160.87 468.571 163.626 467.314 166.661C466.057 169.695 465.41 172.947 465.41 176.231C465.41 179.515 466.057 182.767 467.314 185.801C468.571 188.835 470.413 191.592 472.735 193.914C486.664 207.843 497.713 224.379 505.251 242.578C512.79 260.777 516.669 280.282 516.669 299.981C516.669 319.679 512.79 339.185 505.251 357.384C497.713 375.583 486.664 392.119 472.735 406.047C468.319 410.786 465.915 417.055 466.029 423.531C466.143 430.008 468.767 436.188 473.347 440.768C477.928 445.348 484.107 447.972 490.584 448.086C497.061 448.201 503.329 445.797 508.068 441.381C545.573 403.874 566.642 353.005 566.642 299.964C566.642 246.923 545.606 196.054 508.102 158.547Z" fill="black"/>
</svg>
